<?xml version="1.0" encoding="utf-8"?>
<!-- Generator: Adobe Illustrator 16.0.0, SVG Export Plug-In . SVG Version: 6.00 Build 0)  -->
<!DOCTYPE svg PUBLIC "-//W3C//DTD SVG 1.1//EN" "http://www.w3.org/Graphics/SVG/1.1/DTD/svg11.dtd">
<svg version="1.1" id="Layer_1" xmlns="http://www.w3.org/2000/svg" xmlns:xlink="http://www.w3.org/1999/xlink" x="0px" y="0px"
	 width="451.333px" height="200px" viewBox="0 0 451.333 200" enable-background="new 0 0 451.333 200" xml:space="preserve">
<g>
	<path fill-rule="evenodd" clip-rule="evenodd" fill="#242423" d="M8.322,108.538c0-8.115,4.828-21.197,10.267-30.793
		c7.97-14.06,19.006-25.33,31.801-34.998c2.794-2.111,5.661-4.126,8.552-6.228c-1.608-1.311-3.533-0.583-5.361-1.279
		c6.245-4.438,12.609-8.141,19.013-11.778c1.184,0.969,1.766,2.233,1.838,3.749c-2.941,1.549-6.06,2.796-8.786,4.927
		c1.333,0.37,2.466,0.655,3.579,1.001c0.81,0.252,1.917,0.358,2.049,1.336c0.12,0.891-0.944,1.126-1.573,1.545
		c-8.23,5.487-16.267,11.254-23.573,17.927c-9.871,9.016-18.504,19.018-23.762,31.554c-3.214,7.662-5.188,15.594-5.575,23.898
		c-0.404,8.668,0.462,17.232,2.394,25.679c1.242,5.431,3,10.712,4.926,16.354c3.565-14.833,10.04-27.528,20.926-37.896
		c-3.033,12.591-2.982,24.689,4.514,36.323c2.014-5.146,4.506-9.545,7.848-13.453c3.085-3.607,6.618-6.679,10.566-9.286
		c0.422-0.278,0.955-0.761,1.49-0.349c0.405,0.313,0.226,0.87,0.118,1.332c-1.635,6.998-2.316,14.04-1.306,21.214
		c0.518,3.684,1.357,7.258,2.636,11.053c0.967-1.891,1.695-3.537,2.613-5.07c3.53-5.896,8.614-10.33,13.936-14.508
		c2.15-1.688,2.876-1.335,2.989,1.798c0.236,6.591,0.286,13.193-1.094,19.7c-0.843,3.975-1.745,7.938-2.62,11.904
		c-0.065,0.063-0.131,0.126-0.197,0.189c0.041-0.011,0.096-0.008,0.118-0.034c0.037-0.043,0.051-0.104,0.075-0.158
		c4.953-5.008,8.816-10.77,11.779-17.141c1.389-2.986,2.303-6.15,3.12-9.757c1.451,2.885,2.146,5.518,2.587,8.224
		c0.452,2.777,0.838,5.558,0.974,8.381c0.128,2.647-0.481,5.265-0.333,7.902c4.307-8.306,5.946-19.717,4.504-28.35
		c-1.069-6.403-1.808-12.852-1.854-19.369c-0.027-3.851,0.739-7.624,0.874-11.453c0.191-0.918,0.426-1.829,0.568-2.755
		c1.271-8.276,2.281-16.59,4.689-24.665c1.396-4.681,3.568-9.02,5.337-13.534c0.154,0.028,0.316,0.035,0.462,0.086
		c9.795,3.395,19.84,5.589,30.167,6.625c1.72,0.173,3.615-0.148,5.239,0.837c-0.489,0.506-0.979,1.013-1.468,1.519
		c-6.695,5.584-10.807,12.95-14.169,20.788c-5.301,12.357-8.029,25.521-11.832,38.349c-3.08,10.386-6.523,20.625-12.382,29.847
		c-4.624,7.278-10.514,13.288-18.1,17.526c-0.087-0.132-0.188-0.251-0.302-0.36c1.811-5.496,4.136-10.835,5.011-16.616
		c0.526-3.474,1.063-6.938-0.113-10.944c-8.16,14.31-18.973,25.602-32.204,34.663c9.78-13.494,14.731-28.525,14.958-45.146
		c-8.844,8.39-13.753,18.621-14.436,31.555c-3.635-6.818-6.443-13.175-8.152-19.996c-1.74-6.951-1.578-14.015-1.208-21.165
		c-4.386,2.811-7.175,10.696-9.408,26.472c-10.227-8.755-15.722-19.604-15.928-33.125c-7.41,14.149-7.999,29.331-7.751,44.92
		c-1.643-2.666-3.377-5.28-4.915-8.006c-7-12.415-11.856-25.589-13.982-39.731c-0.374-2.756-0.374-10.281-0.374-11.604"/>
	<path fill-rule="evenodd" clip-rule="evenodd" fill="#313131" d="M72.594,23.462c-0.107-1.223-0.911-2.146-1.389-3.208
		c-2.546-5.669-0.493-11.135,5.164-13.697c0.336-0.152,0.802-0.097,0.905-0.598c1.576,0,3.15,0,4.726,0
		c3.016,1.079,5.144,3.265,7.091,5.679c0.054,1.048,0.097,2.104,1.437,2.374c-0.019,0.529-0.095,1.078,0.462,1.419
		c0.233,1.853,0.936,3.47,2.366,4.722c-0.034,1.438,0.625,2.5,1.785,3.291c0.042,1.466,0.927,2.588,1.557,3.814
		c1.727,3.505,3.457,7.01,5.179,10.518c0.319,0.649,0.747,1.159,1.409,1.508c5.398,2.843,7.564,7.423,7.143,13.379
		c-0.516,2.912-1.835,5.335-3.864,7.545c-1.277,1.39-3.433,1.536-4.244,3.393c-1.25,0.044-2.51,0.013-3.751,0.146
		c-6.875,0.738-13.715-4.87-13.661-11.807c0.03-3.811-0.983-7.027-2.776-10.208c-0.923-1.636-1.667-3.374-2.491-5.065
		c-2.031-2.989-3.011-6.557-5.208-9.455C74.36,25.696,73.778,24.432,72.594,23.462z"/>
	<path fill-rule="evenodd" clip-rule="evenodd" fill="#F89920" d="M293.249,127.229c-2.83,2.107-5.504,4.264-8.681,5.697
		c-4.502,2.033-9.178,2.654-14.033,1.659c-4.532-0.929-7.332-3.845-7.979-8.257c-1.579-10.763-0.212-21.165,4.973-30.867
		c2.214-4.144,6.036-6.231,10.505-6.759c10.252-1.211,20.407-0.179,30.49,1.857c2.103,0.425,1.288,1.873,1.148,2.936
		c-0.879,6.704-1.789,13.405-2.814,20.088c-1.074,6.992-1.845,14.026-3.179,20.982c-1.758,9.171-8.08,15.623-17.278,17.446
		c-8.156,1.616-16.246,1.366-24.32-0.598c-1.767-0.43-2.127-1.283-1.944-2.987c0.624-5.799,0.563-5.82,6.403-5.672
		c4.958,0.126,9.922,0.324,14.817-0.712c5.273-1.116,8.993-3.926,10.252-9.457C292.021,130.77,292.694,129.012,293.249,127.229z
		 M275.344,118.935c-0.037,4.279,1.319,5.922,4.281,5.556c5.708-0.704,9.575-4.389,13.213-8.386c0.235-0.26,0.291-0.72,0.349-1.099
		c0.769-5.127,1.501-10.26,2.298-15.383c0.168-1.082,0.016-1.578-1.237-1.534c-2.75,0.098-5.513-0.054-8.256,0.125
		c-5.335,0.347-7.135,1.916-8.578,7.094C276.118,109.954,275.81,114.744,275.344,118.935z"/>
	<path fill-rule="evenodd" clip-rule="evenodd" fill="#272726" d="M90.528,14.011c-1.34-0.27-1.383-1.325-1.437-2.374
		c6.13-1.786,12.432-2.708,18.76-3.193c13.993-1.072,27.562,0.82,40.513,6.49c5.177,2.266,9.315,5.568,11.263,11.032
		c0.903,2.53,2.673,3.434,5.126,3.682c7.347,0.743,14.767,1.106,22.014,2.414c11.695,2.111,23.159,5.209,32.641,12.973
		c4.176,3.42,7.604,7.459,9.199,12.826c0.511,1.717,0.185,2.015-1.504,1.848c-20.649-2.045-39.803,3.327-58.31,11.855
		c-0.07,0.032-0.128,0.089-0.193,0.135c-1.947,0.656-3.79,1.523-5.484,2.694c-2.839-0.441-5.709-0.743-8.507-1.369
		c-2.22-0.497-4.716-0.225-6.551-2.009c21.02-7.929,42.941-11.899,65.131-14.693c-20.355,0.211-40.242,3.2-59.562,9.662
		c-3.271,1.094-6.519,2.338-10.019,2.51c-3.245,0.159-4.985-1.581-5.009-4.826c-0.012-1.769,0.613-3.432,0.943-5.424
		c-3.416,2.144-5.354,4.771-5.079,8.677c-3.537-0.602-6.489-2.5-9.489-4.289c1.535-1.943,3.133-3.841,4.586-5.844
		c1.252-1.727,3.194-2.9,3.962-5.001l-0.025,0.024c0.364,0.03,0.53-0.136,0.498-0.5l-0.029,0.024
		c0.775,0.116,1.103-0.434,1.441-0.968c0.476-0.334,1.177-0.521,0.885-1.482c-5.322,0.551-10.397-0.611-15.385-2.328
		c-1.397-5.632-4.04-10.507-8.638-14.191c0.054-0.412,0.208-0.72,0.649-0.876c2.144-0.759,4.238-1.698,6.427-2.287
		c6.05-1.628,12.128-2.799,18.505-2.084c3.148,0.353,6.14,1.117,9.177,1.852c2.794,0.676,4.73-0.929,4.938-3.812
		c0.32-4.45-1.416-5.625-5.971-7.634c-7.743-3.416-16.085-4.535-24.48-4.919C111.151,12.131,100.826,12.877,90.528,14.011z
		 M141.01,35.288c-0.824,2.705-2.836,3.966-5.28,3.208c-1.429-0.443-2.31-1.44-2.831-2.906c-0.522-1.469,0.333-2.675,0.547-4.107
		c-2.763,1.94-3.809,4.491-3.024,7.144c0.805,2.721,3.086,4.562,5.838,4.711c2.882,0.156,5.337-1.313,6.436-3.852
		c1.224-2.826,0.41-5.821-1.924-7.082c-0.635-1.3-1.757-1.164-2.807-0.812c-0.861,0.29-1.347,1.094-1.411,1.987
		c-0.07,0.989,0.374,1.795,1.272,2.313C139.069,36.61,140.044,35.991,141.01,35.288z M146.813,33.013
		c0.927,2.458,0.85,4.765,0.494,7.139c-0.958,6.387-3.621,12.34-4.582,18.734c-0.877,5.841,0.09,6.83,5.611,5.023
		c4.547-1.488,9.01-3.281,13.625-4.508c18.532-4.928,37.432-6.488,56.555-5.763c1.36,0.052,2.726,0.007,4.38,0.007
		c-0.654-0.81-1.102-1.437-1.625-1.993c-0.86-0.917-1.728-1.835-2.666-2.67c-7.235-6.435-15.921-9.91-25.142-12.302
		c-9.944-2.58-20.149-3.282-30.32-4.181c-2.974-0.263-4.807-1.484-5.714-4.325c-0.423-1.324-0.848-2.738-2.084-3.769
		C153.566,31.648,152.114,33.123,146.813,33.013z"/>
	<path fill-rule="evenodd" clip-rule="evenodd" fill="#F89920" d="M153.369,80.743c0.489-0.506,0.979-1.013,1.467-1.519
		c4.251-0.169,8.481,0.214,12.716,0.497c-0.637,4.595-1.221,9.197-1.937,13.779c-0.266,1.702,0.26,2.155,1.94,2.129
		c5.903-0.09,11.809-0.075,17.712-0.007c1.47,0.017,2.001-0.397,2.191-1.938c0.84-6.788,1.883-13.549,2.768-20.332
		c0.181-1.382,0.689-1.854,2.089-1.815c3.383,0.093,6.771,0.099,10.153,0c1.604-0.047,1.892,0.367,1.659,1.994
		c-2.816,19.611-5.543,39.235-8.255,58.86c-0.188,1.359-0.486,2.113-2.131,2.049c-3.458-0.138-6.926-0.072-10.389-0.025
		c-1.179,0.016-1.671-0.188-1.462-1.581c1.201-8.008,2.248-16.039,3.472-24.043c0.287-1.879-0.102-2.443-2.067-2.401
		c-5.823,0.124-11.65,0.086-17.475,0.016c-1.453-0.018-2,0.349-2.201,1.904c-0.987,7.64-2.151,15.258-3.226,22.887
		c-0.45,3.198-0.419,3.202-3.66,3.202c-2.834,0-5.675-0.122-8.5,0.042c-1.923,0.112-2.233-0.597-1.981-2.309
		c1.237-8.399,2.405-16.81,3.565-25.221C151.021,98.191,152.187,89.466,153.369,80.743z"/>
	<path fill-rule="evenodd" clip-rule="evenodd" fill="#F89920" d="M410.907,98.307c3.315-2.726,6.1-5.386,9.546-7.147
		c4.366-2.23,8.901-3.644,13.849-2.655c5.603,1.119,8.69,4.933,8.168,10.619c-0.562,6.102-1.558,12.164-2.399,18.239
		c-0.713,5.14-1.513,10.269-2.189,15.413c-0.151,1.149-0.49,1.665-1.726,1.644c-3.463-0.061-6.929-0.073-10.392,0.004
		c-1.438,0.032-1.436-0.572-1.271-1.724c1.258-8.796,2.449-17.602,3.663-26.403c0.064-0.468,0.163-0.931,0.204-1.4
		c0.446-5.066-1.083-6.339-5.964-4.751c-3.861,1.257-7.151,3.584-10.345,6.028c-1.153,0.883-0.933,2.272-1.104,3.473
		c-1.081,7.55-2.163,15.101-3.109,22.668c-0.214,1.706-0.806,2.21-2.495,2.127c-2.984-0.148-5.986-0.147-8.971-0.003
		c-1.821,0.089-2.309-0.441-2.042-2.253c1.237-8.401,2.363-16.819,3.535-25.23c0.727-5.218,1.515-10.427,2.158-15.655
		c0.171-1.396,0.652-1.887,2.057-1.827c2.358,0.101,4.729,0.13,7.083-0.008c1.579-0.093,1.827,0.581,1.769,1.926
		C410.839,93.511,410.907,95.639,410.907,98.307z"/>
	<path fill-rule="evenodd" clip-rule="evenodd" fill="#F89920" d="M356.665,98.217c2.654-2.078,4.822-4.036,7.24-5.613
		c4.989-3.257,10.38-5.328,16.488-4.023c5.355,1.143,8.161,4.672,7.872,10.12c-0.36,6.758-1.762,13.397-2.621,20.101
		c-0.59,4.599-1.383,9.173-1.924,13.777c-0.185,1.567-0.836,1.892-2.253,1.85c-3.066-0.092-6.141-0.11-9.206,0.005
		c-1.65,0.063-2.223-0.37-1.968-2.101c1.227-8.32,2.372-16.652,3.525-24.984c0.216-1.557,0.435-3.124,0.481-4.691
		c0.065-2.197-1.016-3.281-3.18-3.048c-5.412,0.581-9.602,3.712-13.647,6.974c-0.959,0.773-0.629,2.371-0.803,3.585
		c-1.056,7.393-2.056,14.793-2.986,22.202c-0.194,1.555-0.748,2.134-2.368,2.067c-3.143-0.127-6.298-0.122-9.441-0.002
		c-1.636,0.062-2.015-0.484-1.792-2.028c1.642-11.438,3.227-22.884,4.832-34.327c0.328-2.335,0.69-4.665,0.994-7.003
		c0.138-1.071,0.473-1.664,1.754-1.608c2.514,0.109,5.037,0.078,7.554,0.013c1.152-0.029,1.494,0.42,1.466,1.516
		C356.623,93.26,356.665,95.525,356.665,98.217z"/>
	<path fill-rule="evenodd" clip-rule="evenodd" fill="#F89920" d="M239.493,125.89c-3.849,3.444-7.234,6.243-11.376,7.937
		c-3.884,1.588-7.858,2.183-11.988,1.218c-5.163-1.206-7.836-4.489-7.508-9.837c0.269-4.385,0.969-8.746,1.551-13.108
		c0.896-6.701,1.899-13.388,2.756-20.094c0.235-1.844,0.752-2.74,2.884-2.565c2.893,0.239,5.826,0.17,8.73,0.019
		c1.829-0.095,2.293,0.443,2.019,2.243c-1.373,9.015-2.647,18.044-3.943,27.071c-0.111,0.776-0.202,1.567-0.173,2.348
		c0.073,1.966,1.072,2.974,3.111,3.048c3.177,0.115,5.702-1.381,8.296-2.937c3.744-2.246,5.738-5.173,6.072-9.763
		c0.493-6.808,1.806-13.552,2.654-20.339c0.169-1.351,0.662-1.681,1.914-1.653c3.226,0.07,6.458,0.126,9.68-0.017
		c1.792-0.08,1.879,0.731,1.685,2.104c-1.166,8.251-2.299,16.508-3.441,24.763c-0.733,5.295-1.537,10.582-2.155,15.891
		c-0.194,1.665-0.695,2.349-2.454,2.22c-2.114-0.156-4.254-0.132-6.372-0.007c-1.608,0.096-2.05-0.535-1.967-2.041
		C239.573,130.459,239.493,128.518,239.493,125.89z"/>
	<path fill-rule="evenodd" clip-rule="evenodd" fill="#F89920" d="M322.012,134.399c-1.495,0-3.005-0.138-4.48,0.033
		c-2.073,0.24-2.315-0.703-2.069-2.438c1.937-13.611,3.836-27.228,5.701-40.848c0.177-1.286,0.704-1.699,1.979-1.671
		c3.381,0.075,6.765,0.044,10.146,0.015c1.017-0.009,1.595,0.101,1.405,1.414c-1.996,13.84-3.972,27.683-5.849,41.541
		c-0.223,1.638-0.793,2.12-2.352,1.984C325.01,134.298,323.506,134.399,322.012,134.399z"/>
	<path fill-rule="evenodd" clip-rule="evenodd" fill="#4E4D4D" d="M167.552,79.721c-4.234-0.283-8.465-0.667-12.716-0.497
		c-1.623-0.986-3.518-0.665-5.238-0.838c-10.327-1.035-20.372-3.229-30.167-6.625c-0.146-0.051-0.308-0.058-0.463-0.086
		c-1.593-0.629-3.185-1.258-4.777-1.886c-0.637-0.167-1.273-0.334-1.911-0.501c-0.709-0.772-1.725-0.979-2.613-1.425
		c-2.533-1.275-5.199-2.324-7.347-4.264c0.811-1.857,2.967-2.003,4.244-3.393c2.029-2.209,3.348-4.633,3.863-7.544
		c3.079,2.271,5.655,5.247,9.348,6.654c0.512,0.996,1.444,1.304,2.449,1.492c0.625,1.046,1.67,1.462,2.749,1.825
		c3,1.789,5.952,3.687,9.489,4.289c1.009,0.923,2.321,1.277,3.557,1.634c3.308,0.957,6.437,2.695,10.038,2.459
		c1.835,1.784,4.332,1.513,6.551,2.009c2.798,0.626,5.668,0.928,8.507,1.369c1.735,0.153,3.471,0.306,5.206,0.459
		c1.702,0.132,3.404,0.265,5.106,0.397c-0.102,1.449-0.203,2.899-0.304,4.348C171.266,79.64,169.409,79.68,167.552,79.721z"/>
	<path fill-rule="evenodd" clip-rule="evenodd" fill="#F89920" d="M330.789,69.652c6.406,0,7.115,0.823,6.108,7.1
		c-0.818,5.104-1.489,5.648-6.946,5.651c-7.184,0.003-7.566-0.434-6.564-7.516C324.083,69.954,324.51,69.652,330.789,69.652z"/>
	<path fill-rule="evenodd" clip-rule="evenodd" fill="#EF762D" d="M389.984,169.133c0.03-0.471,0.042-0.943,0.089-1.412
		c0.509-5.11,2.282-6.575,7.411-6.131c3.961,0.343,3.992,0.347,3.467,4.303c-0.34,2.566-0.649,5.149-1.225,7.668
		c-0.881,3.859-6.335,6.232-9.859,4.45c-0.408-0.206-0.642-0.39-0.538-0.859c0.119-0.544,0.467-0.767,1.006-0.786
		c1.333-0.047,2.666-0.094,3.997-0.173c0.98-0.059,1.863-0.42,2.48-1.192c0.54-0.677,1.208-1.642,0.748-2.334
		c-0.637-0.957-1.334,0.218-1.959,0.476C391.959,174.646,389.756,173.103,389.984,169.133z M397.015,163.429
		c-3.276,0.044-4.081,0.737-4.531,3.766c-0.104,0.698-0.189,1.402-0.23,2.105c-0.124,2.149,0.857,2.837,2.9,2.044
		c2.643-1.025,3.316-3.184,3.521-5.765C398.796,164.025,398.693,163.062,397.015,163.429z"/>
	<path fill-rule="evenodd" clip-rule="evenodd" fill="#EF762D" d="M208.514,172.169c-1.94,1.065-4.009,2.451-6.122,0.875
		c-2.093-1.562-1.419-4.009-1.001-6.137c0.935-4.758,2.556-5.823,7.628-5.29c3.701,0.391,3.683,0.388,3.11,4.031
		c-0.379,2.408-0.617,4.84-1.06,7.234c-0.813,4.411-5.669,6.913-9.82,5.18c-0.534-0.223-0.76-0.44-0.68-0.999
		c0.089-0.625,0.529-0.688,1.024-0.694c1.022-0.015,2.045-0.012,3.066-0.051c2.452-0.093,4.01-1.211,4.268-3.786
		c0.017-0.208,0.128-0.518,0.035-0.603C208.732,171.722,208.621,171.996,208.514,172.169z M203.336,169.3
		c-0.029,1.454,0.203,2.559,2.072,2.295c2.996-0.424,5.686-4.865,4.577-7.615c-0.076-0.188-0.253-0.382-0.434-0.478
		c-1.814-0.957-5.169,0.562-5.641,2.578C203.662,167.14,203.524,168.226,203.336,169.3z"/>
	<path fill-rule="evenodd" clip-rule="evenodd" fill="#EF762D" d="M412.222,163.58c1.497-0.525,2.346-1.546,3.607-1.852
		c2.405-0.582,3.88,0.285,4.206,2.723c0.32,2.395-0.177,4.725-1.093,6.904c-0.854,2.032-2.759,2.367-4.75,2.353
		c-5.467-0.039-5.777-0.43-4.932-5.75c0.494-3.105,0.834-6.235,1.292-9.348c0.128-0.869,0.031-1.999,1.522-1.852
		c1.817,0.181,0.759,1.413,0.729,2.127C412.746,160.364,412.455,161.833,412.222,163.58z M413.101,171.803
		c3.157-0.032,3.943-0.698,4.385-3.607c0.129-0.851,0.19-1.714,0.239-2.574c0.112-1.97-1.022-2.315-2.56-1.758
		c-2.643,0.957-3.726,2.922-3.88,5.736C411.189,171.363,411.465,172.139,413.101,171.803z"/>
	<path fill-rule="evenodd" clip-rule="evenodd" fill="#EF762D" d="M364.433,171.617c-2.081,1.428-4.111,3.061-6.392,1.468
		c-2.128-1.486-1.483-3.943-1.092-6.102c0.88-4.837,2.24-5.843,7.325-5.267c1.318,0.149,1.893-0.064,1.834-1.478
		c-0.028-0.693,0.28-1.396,0.287-2.097c0.012-1.182,0.621-1.487,1.659-1.357c1.196,0.149,0.74,1.02,0.659,1.627
		c-0.582,4.365-1.187,8.728-1.837,13.083c-0.104,0.694,0.151,1.673-0.979,1.881C364.458,173.642,364.958,172.256,364.433,171.617z
		 M363.503,163.431c-2.336-0.16-3.9,0.586-4.142,3.096c-0.09,0.93-0.343,1.848-0.385,2.777c-0.095,2.152,0.907,2.823,2.906,2.029
		c2.611-1.035,3.249-3.175,3.556-5.731C365.659,163.77,365.237,163.099,363.503,163.431z"/>
	<path fill-rule="evenodd" clip-rule="evenodd" fill="#B4B4B4" d="M173.124,79.599c0.102-1.449,0.203-2.899,0.304-4.348
		c1.471-1.055,2.416-2.847,4.685-2.741c2.713,0.126,4.67,1.457,5.315,4.046c0.574,2.306-0.642,4.731-2.908,5.799
		c-2.181,1.028-4.67,0.389-6.283-1.589C173.898,80.349,173.496,79.986,173.124,79.599z"/>
	<path fill-rule="evenodd" clip-rule="evenodd" fill="#EF762D" d="M194.245,161.524c4.877,0.197,4.865,0.195,4.135,4.986
		c-0.283,1.859-0.511,3.728-0.74,5.595c-0.134,1.086-1.265,1.858-1.611,1.089c-1.004-2.225-1.832-0.458-2.599-0.102
		c-3.612,1.674-6.15,0.068-5.938-3.855c0.05-0.936,0.192-1.873,0.375-2.794C188.643,162.561,190.214,161.362,194.245,161.524z
		 M189.795,168.784c-0.1,2.672,0.896,3.375,2.993,2.527c2.376-0.96,4.28-4.771,3.572-7.174c-0.061-0.205-0.177-0.44-0.341-0.563
		c-1.432-1.056-5.206,0.331-5.697,2.148C190.019,166.846,189.92,168.023,189.795,168.784z"/>
	<path fill-rule="evenodd" clip-rule="evenodd" fill="#EE752C" d="M267.457,169.523c0.039-0.379,0.049-0.457,0.055-0.535
		c0.541-6.865,3.813-9.05,10.485-7.052c0.781,0.234,0.973,0.562,0.856,1.332c-0.456,3.025-0.839,6.062-1.285,9.088
		c-0.183,1.237-1.399,1.49-1.741,0.674c-0.739-1.766-1.384-0.531-2.023-0.188c-1.696,0.911-3.484,1.292-5.148,0.239
		C267.315,172.234,267.484,170.635,267.457,169.523z M274.547,163.428c-3.179,0.003-4.046,0.711-4.485,3.527
		c-0.134,0.855-0.297,1.712-0.346,2.573c-0.102,1.803,0.751,2.441,2.496,1.956c3.016-0.838,3.765-3.137,4.012-5.896
		C276.361,164.063,276.267,163.036,274.547,163.428z"/>
	<path fill-rule="evenodd" clip-rule="evenodd" fill="#EE752C" d="M337.324,171.784c-0.857,0.537-1.482,1.031-2.187,1.352
		c-3.524,1.602-5.945-0.036-5.699-3.87c0.452-7.072,2.074-8.686,10.422-7.326c0.774,0.127,1.073,0.46,0.952,1.263
		c-0.456,3.021-0.882,6.048-1.299,9.075c-0.083,0.599-0.241,1.014-0.948,1.107C337.257,173.559,337.776,172.351,337.324,171.784z
		 M336.485,163.428c-3.173-0.004-4.084,0.736-4.5,3.508c-0.116,0.778-0.26,1.556-0.316,2.339c-0.155,2.155,0.838,2.848,2.903,2.089
		c2.817-1.035,3.318-3.372,3.604-5.985C338.356,163.727,337.848,163.183,336.485,163.428z"/>
	<path fill-rule="evenodd" clip-rule="evenodd" fill="#EF762D" d="M214.763,168.589c0.205-5.788,2.273-7.527,8.027-6.88
		c1.558,0.175,2.707,0.969,2.752,2.679c0.044,1.678-0.526,3.073-2.258,3.743c-1.495,0.578-3.104,0.423-4.631,0.763
		c-0.532,0.119-1.399-0.279-1.479,0.692c-0.069,0.852,0.32,1.494,1.164,1.838c1.389,0.564,2.788,0.189,4.191,0.131
		c0.611-0.025,1.509-0.522,1.701,0.609c0.18,1.055-0.667,1.101-1.35,1.187c-1.163,0.147-2.343,0.368-3.501,0.305
		C215.813,173.462,214.726,172.213,214.763,168.589z M218.867,167.058c1.116,0.101,2.239-0.042,3.231-0.505
		c1.159-0.542,1.701-1.609,0.697-2.629c-1.257-1.276-4.525-0.222-5.169,1.531C217.192,166.638,217.162,167.521,218.867,167.058z"/>
	<path fill-rule="evenodd" clip-rule="evenodd" fill="#EF762D" d="M290.388,168.529c0.286-5.672,2.163-7.495,8.091-6.812
		c1.463,0.169,2.566,0.922,2.68,2.496c0.12,1.667-0.394,3.097-2.078,3.852c-1.475,0.659-3.098,0.446-4.615,0.815
		c-0.591,0.144-1.58-0.337-1.665,0.747c-0.077,0.967,0.488,1.589,1.431,1.894c1.329,0.431,2.645,0.081,3.97,0.024
		c0.62-0.026,1.505-0.484,1.653,0.671c0.14,1.087-0.756,0.999-1.398,1.157c-1.624,0.397-3.252,0.441-4.894,0.06
		C291.064,172.852,290.346,171.765,290.388,168.529z M292.976,167.079c1.636,0.065,3.025-0.011,4.414-0.385
		c1.016-0.275,1.416-0.912,1.468-1.863c0.064-1.176-0.885-1.131-1.623-1.262C294.659,163.112,293.562,163.996,292.976,167.079z"/>
	<path fill-rule="evenodd" clip-rule="evenodd" fill="#EF762D" d="M433.618,162.708c-1.59,5.172-2.888,10.512-7.493,14.07
		c-0.667,0.515-1.517,0.825-2.323,1.113c-0.562,0.2-1.268,0.423-1.518-0.512c-0.191-0.72,0.293-0.978,0.812-1.216
		c0.641-0.296,1.402-0.459,1.893-0.914c0.607-0.565,2.776-1.251,0.124-2.161c-0.687-0.236-0.764-1.146-0.908-1.836
		c-0.533-2.538-1.081-5.074-1.539-7.626c-0.104-0.578-1.093-1.53,0.453-1.769c1.184-0.183,1.709,0.322,1.884,1.472
		c0.319,2.098,0.688,4.19,1.114,6.269c0.145,0.705-0.008,1.717,1.043,1.889c1.202,0.196,1.322-0.876,1.662-1.624
		c1.012-2.223,1.83-4.523,2.306-6.915c0.223-1.114,0.882-1.11,1.704-1.089C433.395,161.875,433.75,162.038,433.618,162.708z"/>
	<path fill-rule="evenodd" clip-rule="evenodd" fill="#EE752C" d="M157.579,166.208c-0.082,5.861-3.306,8.571-8.479,7.162
		c-0.882-0.24-1.706-0.604-2.064-1.416c-1.24-2.81-0.651-5.538,0.723-8.107c1.241-2.319,3.538-2.421,5.752-2.2
		C156.688,161.964,157.621,163.124,157.579,166.208z M155.222,166.419c0.067-2.305-0.86-3.141-3.132-2.827
		c-2.244,0.309-3.563,2.641-3.355,5.848c0.098,1.511,0.868,2.254,2.362,2.337C153.692,171.92,155.116,170.082,155.222,166.419z"/>
	<path fill-rule="evenodd" clip-rule="evenodd" fill="#EF762D" d="M238.781,164.605c-0.367,2.572-0.749,5.055-1.065,7.546
		c-0.124,0.983-0.565,1.335-1.549,1.248c-1.235-0.109-0.778-0.893-0.698-1.539c0.253-2.025,0.558-4.046,0.759-6.076
		c0.215-2.162-0.651-2.799-2.607-1.817c-1.827,0.918-3.535,1.973-3.435,4.515c0.051,1.31-0.377,2.634-0.537,3.958
		c-0.123,1.021-0.817,0.977-1.552,0.944c-1.02-0.043-0.786-0.69-0.696-1.332c0.41-2.955,0.786-5.914,1.196-8.869
		c0.083-0.601,0.093-1.288,1.004-1.324c0.843-0.033,1.049,0.355,1.06,1.14c0.017,1.235,0.693,0.703,1.206,0.343
		c1.029-0.727,2.046-1.468,3.317-1.72C237.431,161.177,238.903,162.437,238.781,164.605z"/>
	<path fill-rule="evenodd" clip-rule="evenodd" fill="#EF762D" d="M379.65,163.904c1.466-0.648,2.533-1.911,4.134-2.243
		c2.375-0.492,3.961,0.721,3.714,3.096c-0.26,2.492-0.766,4.959-1.039,7.449c-0.119,1.098-0.663,1.245-1.556,1.183
		c-1.22-0.086-0.783-0.883-0.699-1.535c0.27-2.099,0.62-4.19,0.793-6.298c0.158-1.938-0.591-2.499-2.355-1.676
		c-1.824,0.852-3.663,1.788-3.659,4.329c0.002,1.24-0.369,2.478-0.491,3.724c-0.099,0.988-0.352,1.603-1.556,1.471
		c-1.412-0.154-0.807-1.03-0.714-1.717c0.356-2.641,0.716-5.281,1.117-7.915c0.115-0.759-0.269-1.866,1.128-1.909
		C380.07,161.813,378.989,163.205,379.65,163.904z"/>
	<path fill-rule="evenodd" clip-rule="evenodd" fill="#EE752C" d="M346.52,163.845c1.411-0.611,2.481-1.868,4.076-2.186
		c2.31-0.461,3.797,0.591,3.626,2.915c-0.189,2.577-0.688,5.131-0.952,7.705c-0.12,1.179-0.85,1.136-1.655,1.095
		c-1.05-0.053-0.736-0.839-0.667-1.398c0.27-2.18,0.605-4.352,0.886-6.531c0.243-1.894-0.787-2.26-2.259-1.626
		c-2.052,0.885-3.917,1.979-3.883,4.699c0.015,1.164-0.394,2.329-0.427,3.499c-0.033,1.199-0.625,1.468-1.646,1.367
		c-1.221-0.119-0.748-1.012-0.67-1.604c0.35-2.645,0.723-5.288,1.196-7.912c0.128-0.71-0.387-1.86,1.025-2.003
		C346.837,161.695,345.738,163.347,346.52,163.845z"/>
	<path fill-rule="evenodd" clip-rule="evenodd" fill="#EE752C" d="M167.676,171.393c-1.273,0.885-2.443,1.833-3.916,2.186
		c-2.375,0.569-3.952-0.617-3.764-3.02c0.201-2.577,0.662-5.134,0.965-7.705c0.12-1.014,0.788-0.986,1.527-0.993
		c1.024-0.008,0.875,0.686,0.791,1.299c-0.295,2.177-0.693,4.343-0.91,6.526c-0.188,1.892,0.652,2.513,2.378,1.694
		c1.762-0.836,3.456-1.802,3.468-4.23c0.006-1.397,0.443-2.789,0.561-4.193c0.097-1.159,0.806-1.156,1.632-1.083
		c1.075,0.095,0.657,0.824,0.581,1.395c-0.361,2.723-0.71,5.447-1.105,8.166c-0.112,0.772,0.222,1.894-1.131,1.938
		C167.311,173.418,168.266,172.01,167.676,171.393z"/>
	<path fill-rule="evenodd" clip-rule="evenodd" fill="#EF762D" d="M256.967,163.589c-1.326,0.112-3.405-0.735-3.798,0.746
		c-0.514,1.937,1.965,1.736,3.062,2.563c0.556,0.418,1.258,0.634,1.877,0.975c1.147,0.63,1.753,1.579,1.501,2.914
		c-0.231,1.226-0.795,2.202-2.136,2.541c-2.26,0.571-4.523,0.425-6.792,0.103c-0.478-0.068-0.934-0.145-0.904-0.813
		c0.031-0.699,0.398-0.954,1.055-0.962c1.491-0.02,2.984-0.021,4.472-0.111c0.747-0.046,1.724,0.056,1.94-0.95
		c0.231-1.076-0.806-1.204-1.455-1.541c-1.044-0.542-2.139-0.988-3.192-1.514c-1.394-0.695-2.192-1.729-1.914-3.402
		c0.287-1.722,1.532-2.255,3.002-2.522c1.975-0.359,3.916,0.179,5.875,0.269c0.416,0.019,0.797,0.116,0.732,0.66
		c-0.067,0.573-0.192,1.087-0.966,1.054C258.541,163.563,257.753,163.589,256.967,163.589z"/>
	<path fill-rule="evenodd" clip-rule="evenodd" fill="#EF762D" d="M314.394,163.576c-0.643,0.111-2.717-0.715-3.117,0.75
		c-0.53,1.944,1.941,1.75,3.042,2.563c0.622,0.46,1.396,0.707,2.072,1.101c1.059,0.614,1.561,1.553,1.325,2.77
		c-0.235,1.212-0.774,2.213-2.114,2.559c-2.256,0.583-4.516,0.425-6.785,0.123c-0.632-0.084-1.023-0.287-0.914-1.035
		c0.114-0.778,0.664-0.782,1.223-0.743c1.652,0.116,3.296,0.099,4.935-0.178c0.655-0.11,1.263-0.276,1.326-1.069
		c0.055-0.7-0.528-0.892-1.019-1.13c-1.339-0.653-2.695-1.27-4.017-1.956c-1.249-0.65-1.779-1.697-1.572-3.123
		c0.212-1.456,1.12-2.126,2.469-2.471c2.134-0.546,4.22,0.043,6.326,0.14c0.562,0.026,0.862,0.236,0.777,0.863
		c-0.076,0.559-0.349,0.84-0.914,0.838C316.652,163.574,315.867,163.576,314.394,163.576z"/>
	<path fill-rule="evenodd" clip-rule="evenodd" fill="#EE752C" d="M140.321,165.429c1.449-2.321,2.922-4.538,4.239-6.844
		c0.738-1.292,1.613-1.834,3.376-1.22c-1.759,2.741-3.329,5.521-5.232,8.049c-1.582,2.102-1.771,4.478-2.063,6.87
		c-0.12,0.982-0.621,1.099-1.412,1.114c-0.835,0.016-1.244-0.354-0.991-1.13c1.571-4.826-1.117-8.84-2.423-13.125
		c-0.189-0.621-1.192-1.484-0.025-1.958c1.1-0.447,1.834,0.104,2.198,1.372C138.651,160.859,139.519,163.102,140.321,165.429z"/>
	<path fill-rule="evenodd" clip-rule="evenodd" fill="#EF762D" d="M321.509,169.754c0.126-0.886,0.39-2.279,0.505-3.686
		c0.083-1.014,0.842-2.314-1.235-2.549c-0.848-0.096-0.49-1.483,0.192-1.489c1.699-0.014,1.958-1.026,1.967-2.254
		c0.009-1.266,0.726-1.411,1.686-1.288c1.239,0.159,0.717,1.107,0.544,1.629c-0.559,1.687,0.295,1.816,1.617,1.775
		c0.543-0.017,1.544-0.506,1.543,0.744c-0.001,1.204-0.893,1.129-1.664,1.033c-1.594-0.197-2.302,0.403-2.289,2.052
		c0.008,1.008-0.276,2.019-0.418,3.029c-0.207,1.474-0.447,2.967,1.874,2.72c0.528-0.056,0.911,0.195,0.938,0.789
		c0.021,0.468,0.026,0.833-0.563,1.102C323.649,174.528,321.344,173.054,321.509,169.754z"/>
	<path fill-rule="evenodd" clip-rule="evenodd" fill="#EF762D" d="M246.01,160.26c-0.58,1.775,0.662,1.59,1.815,1.622
		c0.516,0.014,1.396-0.392,1.383,0.708c-0.012,0.962-0.676,1.216-1.452,1.078c-2.026-0.361-2.583,0.731-2.674,2.471
		c-0.053,1.017-0.253,2.027-0.42,3.036c-0.221,1.338-0.12,2.414,1.661,2.275c0.729-0.056,1.206,0.151,1.257,0.995
		c0.059,0.98-0.683,0.883-1.263,1.011c-2.963,0.654-4.394-0.628-4.038-3.647c0.156-1.327,0.369-2.648,0.566-3.971
		c0.152-1.013,0.852-2.262-1.134-2.229c-0.465,0.008-0.503-0.51-0.478-0.92c0.028-0.45,0.238-0.798,0.706-0.753
		c1.417,0.135,1.722-0.668,1.739-1.857c0.014-0.917,0.208-1.707,1.476-1.619C246.57,158.557,245.894,159.529,246.01,160.26z"/>
	<path fill-rule="evenodd" clip-rule="evenodd" fill="#EF762D" d="M176.705,163.85c1.319-0.724,2.287-1.858,3.726-2.119
		c0.538-0.098,1.343-0.634,1.46,0.322c0.069,0.559,0.051,1.471-0.908,1.687c-0.605,0.136-1.208,0.3-1.795,0.498
		c-2.814,0.945-3.278,3.259-3.388,5.802c-0.038,0.86-0.198,1.717-0.331,2.57c-0.14,0.893-0.855,0.751-1.471,0.776
		c-0.786,0.031-0.909-0.444-0.819-1.072c0.456-3.188,0.932-6.374,1.359-9.566c0.095-0.707,0.42-0.926,1.083-0.88
		C176.952,161.96,176.139,163.134,176.705,163.85z"/>
	<path fill-rule="evenodd" clip-rule="evenodd" fill="#EF762D" d="M284.581,163.885c1.251-0.864,2.28-1.875,3.707-2.179
		c0.5-0.106,1.233-0.521,1.409,0.171c0.15,0.594,0.027,1.689-0.726,1.774c-4.967,0.565-5.295,4.267-5.623,8.025
		c-0.046,0.52,0.16,1.223-0.411,1.491c-0.457,0.215-1.1,0.277-1.582,0.138c-0.725-0.211-0.412-0.925-0.347-1.414
		c0.366-2.717,0.733-5.435,1.206-8.134c0.122-0.696-0.338-1.892,1.119-1.892C284.826,161.867,283.834,163.259,284.581,163.885z"/>
	<path fill-rule="evenodd" clip-rule="evenodd" fill="#EE752C" d="M370.275,172.167c0.452-3.108,0.95-6.211,1.332-9.329
		c0.132-1.074,0.774-0.965,1.486-0.975c0.981-0.014,0.896,0.58,0.797,1.263c-0.442,3.03-0.89,6.061-1.268,9.099
		c-0.116,0.934-0.589,1.14-1.412,1.15C370.286,173.389,370.178,172.889,370.275,172.167z"/>
	<path fill-rule="evenodd" clip-rule="evenodd" fill="#F89920" d="M168.321,74.853c-1.735-0.153-3.471-0.306-5.206-0.459
		c1.695-1.171,3.538-2.038,5.485-2.694C168.507,72.75,168.414,73.802,168.321,74.853z"/>
	<path fill-rule="evenodd" clip-rule="evenodd" fill="#EF762D" d="M373.509,156.896c0.936,0.008,1.147,0.545,1.084,1.377
		c-0.062,0.805-0.316,1.312-1.233,1.322c-0.851,0.01-1.307-0.24-1.226-1.197C372.209,157.504,372.521,156.913,373.509,156.896z"/>
	<path fill-rule="evenodd" clip-rule="evenodd" fill="#242423" d="M96.886,187.252c-0.175,0.023-0.35,0.046-0.524,0.069
		c0.074-0.143,0.148-0.286,0.223-0.43C96.699,187.001,96.799,187.12,96.886,187.252z"/>
	<path fill-rule="evenodd" clip-rule="evenodd" fill="#444343" d="M112.28,69.288c0.637,0.167,1.274,0.333,1.911,0.5
		c-16.351,18.895-22.052,45.378-18.032,59.919c1.968-1.271,3.416-2.996,4.806-4.79c2.951-3.808,4.932-8.197,7.41-12.289
		c-0.135,3.829-0.9,7.603-0.874,11.453c0.046,6.518,0.786,12.966,1.854,19.369c1.441,8.633-0.197,20.044-4.504,28.35
		c-0.148-2.638,0.461-5.255,0.333-7.902c-0.136-2.823-0.522-5.604-0.974-8.381c-0.44-2.706-1.136-5.339-2.587-8.224
		c-0.817,3.606-1.731,6.771-3.12,9.757c-2.962,6.371-6.826,12.133-11.779,17.141l0.003,0.003c0.875-3.967,1.777-7.93,2.62-11.904
		c1.379-6.507,1.33-13.109,1.094-19.7c-0.112-3.133-0.838-3.485-2.989-1.798c-5.322,4.178-10.406,8.611-13.936,14.508
		c-0.918,1.533-1.646,3.18-2.613,5.07c-1.278-3.795-2.118-7.369-2.636-11.053c-1.01-7.174-0.329-14.216,1.306-21.214
		c0.108-0.462,0.287-1.02-0.118-1.332c-0.535-0.412-1.067,0.07-1.49,0.349c-3.948,2.607-7.481,5.679-10.566,9.286
		c-3.341,3.908-5.834,8.307-7.848,13.453c-7.496-11.634-7.546-23.732-4.514-36.323c-10.886,10.368-17.36,23.063-20.926,37.896
		c-1.926-5.642-3.685-10.923-4.926-16.354c-1.932-8.446-2.798-17.011-2.394-25.679c0.387-8.305,2.361-16.236,5.575-23.898
		c5.257-12.536,13.891-22.539,23.762-31.554c7.306-6.673,15.343-12.44,23.573-17.927c0.629-0.419,1.693-0.654,1.573-1.545
		c-0.132-0.978-1.239-1.083-2.049-1.336c-1.113-0.346-2.246-0.631-3.579-1.001c2.726-2.131,5.845-3.378,8.786-4.927
		c2.197,2.897,3.178,6.465,5.208,9.455c-2.03,0.174-2.034,2.392-3.333,3.303c-0.296,0.094-0.642,0.119-0.88,0.293
		c-8.238,6.021-16.163,12.428-23.654,19.361c-0.367,0.34-0.943,0.641-0.643,1.554c4.016-1.626,8.191-2.149,12.974-1.666
		c-10.516,8.267-19.6,17.301-25.831,28.788c-5.354,9.872-10.453,31.826-8.74,36.969c4.493-6.833,9.504-13.128,15.634-18.486
		c3.68-3.217,7.476-6.236,11.965-8.27c0.424-0.192,0.875-0.54,1.316-0.231c0.55,0.385,0.118,0.862-0.079,1.241
		c-3.917,7.543-6.159,15.579-6.951,24.015c-0.401,4.272,0.147,8.464,1.522,12.92c7.125-9.657,16.202-15.971,27.198-20.535
		c-3.013,10.164-4.843,19.896-3.582,30.638c2.586-4.589,6.277-7.263,10.075-9.718c1.884-1.218,2.308-2.671,1.904-4.562
		c-1.365-6.397-0.928-12.778,0.076-19.154c1.44-9.146,4.55-17.717,8.718-25.975c2.416-4.786,5.515-9.126,8.201-13.729
		C107.773,72.03,110.371,71.22,112.28,69.288z"/>
	<path fill-rule="evenodd" clip-rule="evenodd" fill="#B52125" d="M108.375,112.629c-2.478,4.092-4.458,8.481-7.41,12.289
		c-1.39,1.794-2.838,3.52-4.806,4.79c-4.02-14.541,1.681-41.025,18.032-59.919c1.592,0.629,3.184,1.258,4.777,1.887
		c-1.768,4.515-3.939,8.854-5.336,13.534c-2.408,8.074-3.419,16.388-4.689,24.665C108.8,110.8,108.566,111.711,108.375,112.629z"/>
	<path fill-rule="evenodd" clip-rule="evenodd" fill="#444343" d="M86.724,174.191c-0.024,0.054-0.039,0.115-0.075,0.158
		c-0.022,0.026-0.078,0.023-0.118,0.034c0.066-0.063,0.131-0.126,0.197-0.189L86.724,174.191z"/>
	<path fill-rule="evenodd" clip-rule="evenodd" fill="#898889" d="M112.28,69.288c-1.91,1.932-4.507,2.742-6.747,4.134
		c-4.299,1.051-8.591,1.514-13.014,0.573c-10.616-2.259-18.918-12.402-18.593-23.786c0.104-3.617,1.538-6.841,2.381-10.24
		c1.299-0.911,1.303-3.129,3.333-3.303c0.825,1.692,1.568,3.429,2.491,5.065c1.792,3.18,2.806,6.397,2.776,10.208
		c-0.054,6.937,6.786,12.544,13.661,11.807c1.241-0.133,2.5-0.102,3.751-0.146c2.148,1.939,4.814,2.989,7.347,4.264
		C110.555,68.309,111.571,68.516,112.28,69.288z"/>
	<path fill-rule="evenodd" clip-rule="evenodd" fill="#444343" d="M90.528,14.011c10.298-1.134,20.624-1.88,30.985-1.406
		c8.395,0.384,16.738,1.504,24.48,4.919c4.555,2.009,6.291,3.184,5.971,7.634c-0.208,2.883-2.144,4.488-4.938,3.812
		c-3.037-0.735-6.028-1.5-9.177-1.852c-6.377-0.714-12.455,0.456-18.505,2.084c-2.189,0.589-4.283,1.528-6.427,2.287
		c-0.441,0.156-0.595,0.464-0.649,0.876c-1.306-0.918-2.611-1.837-3.917-2.756c1.396-0.525,2.791-1.051,4.188-1.573
		c10.346-3.864,20.84-5.655,31.77-2.554c1.766,0.501,4.346,1.412,5.066-1.163c0.688-2.458-1.813-3.153-3.648-3.773
		c-8.566-2.895-17.452-2.067-26.181-1.632c-8.264,0.411-16.423,2.193-24.407,4.528c-1.159-0.791-1.818-1.853-1.784-3.291
		c0.839-0.162,1.674-0.352,2.519-0.475c0.542-0.079,1.24,0.003,1.384-0.626c0.139-0.607-0.474-0.962-0.952-1.19
		c-1.76-0.837-3.383-1.977-5.317-2.431C90.433,15.089,90.509,14.541,90.528,14.011z"/>
	<path fill-rule="evenodd" clip-rule="evenodd" fill="#898889" d="M108.352,29.61c1.306,0.918,2.611,1.837,3.917,2.756
		c4.598,3.684,7.241,8.559,8.638,14.191c0.136,1.098,0.273,2.196,0.41,3.294c-0.175,2.233-0.35,4.466-0.526,6.699
		c-0.506,0.86-0.986,1.73-1.015,2.765c-3.693-1.407-6.269-4.383-9.348-6.654c0.422-5.957-1.744-10.537-7.142-13.379
		c-0.662-0.349-1.09-0.858-1.409-1.508c-1.722-3.508-3.452-7.012-5.179-10.518C100.832,26.806,104.574,28.295,108.352,29.61z"/>
	<path fill-rule="evenodd" clip-rule="evenodd" fill="#616262" d="M108.352,29.61c-3.778-1.315-7.52-2.804-11.654-2.354
		c-0.63-1.226-1.515-2.348-1.557-3.814c7.983-2.335,16.142-4.117,24.406-4.528c8.729-0.435,17.615-1.263,26.181,1.632
		c1.835,0.62,4.335,1.315,3.648,3.773c-0.72,2.575-3.3,1.664-5.066,1.163c-10.93-3.101-21.424-1.31-31.77,2.554
		C111.143,28.559,109.748,29.085,108.352,29.61z"/>
	<path fill-rule="evenodd" clip-rule="evenodd" fill="#242423" d="M90.99,15.43c1.934,0.455,3.558,1.594,5.317,2.431
		c0.478,0.228,1.091,0.583,0.952,1.19c-0.144,0.63-0.842,0.547-1.384,0.626c-0.845,0.123-1.68,0.313-2.519,0.475
		C91.926,18.9,91.223,17.283,90.99,15.43z"/>
	<path fill-rule="evenodd" clip-rule="evenodd" fill="#BCBBBB" d="M146.813,33.013c5.302,0.109,6.754-1.365,8.531-8.607
		c1.237,1.03,1.662,2.445,2.084,3.769c0.908,2.84,2.74,4.062,5.714,4.325c10.17,0.899,20.375,1.601,30.32,4.181
		c9.221,2.393,17.907,5.868,25.142,12.302c0.938,0.835,1.806,1.754,2.666,2.67c0.523,0.556,0.971,1.184,1.625,1.993
		c-1.654,0-3.02,0.044-4.38-0.007c-19.123-0.726-38.022,0.835-56.555,5.763c-4.615,1.227-9.077,3.02-13.625,4.508
		c-5.521,1.806-6.489,0.817-5.611-5.023c0.961-6.395,3.625-12.348,4.582-18.734C147.662,37.778,147.74,35.471,146.813,33.013z"/>
	<path fill-rule="evenodd" clip-rule="evenodd" fill="#B4B4B4" d="M148.057,71.016c-3.601,0.235-6.729-1.503-10.038-2.459
		c-1.236-0.357-2.547-0.711-3.557-1.634c-0.275-3.906,1.663-6.534,5.079-8.678c-0.33,1.992-0.955,3.655-0.943,5.424
		c0.023,3.245,1.764,4.985,5.009,4.826c3.5-0.172,6.748-1.416,10.019-2.51c19.32-6.461,39.207-9.451,59.562-9.662
		C190.999,59.117,169.077,63.087,148.057,71.016z"/>
	<path fill-rule="evenodd" clip-rule="evenodd" fill="#444343" d="M119.775,59.315c0.029-1.035,0.509-1.905,1.015-2.766
		c2.259-1.47,4.522-2.936,6.775-4.416c0.312-0.205,0.727-0.465,0.462-0.906c-0.122-0.202-0.518-0.353-0.777-0.338
		c-2.064,0.121-3.907-0.989-5.934-1.04c-0.137-1.098-0.273-2.196-0.41-3.294c4.987,1.716,10.063,2.878,15.385,2.328
		c0.292,0.962-0.409,1.148-0.885,1.483c-0.653,0.065-1.141,0.376-1.441,0.968l0.029-0.024c-0.166,0.167-0.332,0.333-0.498,0.5
		l0.025-0.024c-0.612-0.029-1.009,0.378-1.424,0.726c-3.294,2.761-6.583,5.529-9.874,8.295
		C121.219,60.62,120.288,60.312,119.775,59.315z"/>
	<path fill-rule="evenodd" clip-rule="evenodd" fill="#EEC81B" d="M140.772,32.404c2.334,1.261,3.147,4.255,1.924,7.082
		c-1.099,2.539-3.554,4.008-6.436,3.852c-2.751-0.149-5.033-1.99-5.838-4.711c-0.785-2.652,0.261-5.204,3.024-7.144
		c-0.214,1.432-1.069,2.638-0.547,4.107c0.521,1.466,1.402,2.463,2.831,2.906c2.443,0.758,4.456-0.503,5.28-3.208
		C141.094,34.313,141.23,33.334,140.772,32.404z"/>
	<path fill-rule="evenodd" clip-rule="evenodd" fill="#B52125" d="M122.225,60.808c3.29-2.766,6.579-5.534,9.874-8.295
		c0.415-0.348,0.812-0.754,1.424-0.726c-0.769,2.101-2.71,3.275-3.962,5.001c-1.453,2.003-3.051,3.901-4.586,5.844
		C123.895,62.27,122.85,61.854,122.225,60.808z"/>
	<path fill-rule="evenodd" clip-rule="evenodd" fill="#FFF5EE" d="M140.772,32.404c0.458,0.93,0.321,1.909,0.237,2.884
		c-0.965,0.704-1.941,1.322-3.183,0.605c-0.898-0.519-1.342-1.325-1.272-2.313c0.063-0.893,0.55-1.698,1.411-1.987
		C139.016,31.24,140.138,31.104,140.772,32.404z"/>
	<path fill-rule="evenodd" clip-rule="evenodd" fill="#B52125" d="M133.966,51.335c0.3-0.591,0.788-0.903,1.441-0.968
		C135.069,50.902,134.741,51.451,133.966,51.335z"/>
	<path fill-rule="evenodd" clip-rule="evenodd" fill="#B52125" d="M133.498,51.811c0.166-0.167,0.332-0.333,0.498-0.5
		C134.027,51.675,133.861,51.841,133.498,51.811z"/>
	<path fill-rule="evenodd" clip-rule="evenodd" fill="#FFFEFD" d="M208.514,172.169c0.107-0.173,0.219-0.447,0.448-0.239
		c0.093,0.085-0.018,0.395-0.035,0.603C208.79,172.411,208.651,172.29,208.514,172.169z"/>
	<path fill-rule="evenodd" clip-rule="evenodd" fill="#FFF5EE" d="M189.795,168.784c0.125-0.761,0.224-1.938,0.527-3.061
		c0.491-1.817,4.265-3.204,5.697-2.148c0.164,0.122,0.281,0.357,0.341,0.563c0.708,2.403-1.196,6.214-3.572,7.174
		C190.691,172.159,189.695,171.456,189.795,168.784z"/>
	<path fill-rule="evenodd" clip-rule="evenodd" fill="#FFF5EE" d="M292.976,167.079c0.586-3.083,1.683-3.967,4.259-3.51
		c0.738,0.131,1.688,0.086,1.623,1.262"/>
	<path fill-rule="evenodd" clip-rule="evenodd" fill="#616262" d="M76.308,39.969c-0.843,3.399-2.277,6.624-2.381,10.24
		c-0.326,11.384,7.977,21.527,18.593,23.786c4.422,0.941,8.714,0.479,13.014-0.573c-2.687,4.602-5.786,8.942-8.202,13.728
		c-4.168,8.258-7.278,16.828-8.718,25.975c-1.004,6.376-1.441,12.757-0.076,19.154c0.403,1.891-0.021,3.344-1.904,4.562
		c-3.798,2.455-7.489,5.129-10.075,9.718c-1.261-10.742,0.568-20.474,3.582-30.638c-10.997,4.564-20.074,10.878-27.198,20.535
		c-1.375-4.456-1.923-8.647-1.522-12.92c0.792-8.437,3.034-16.472,6.951-24.015c0.196-0.378,0.629-0.856,0.079-1.241
		c-0.441-0.308-0.892,0.04-1.316,0.231c-4.489,2.033-8.285,5.053-11.965,8.27c-6.129,5.358-11.141,11.653-15.634,18.486
		c-1.713-5.143,3.385-27.097,8.74-36.969c6.231-11.487,15.315-20.521,25.831-28.788c-4.783-0.484-8.958,0.039-12.974,1.666
		c-0.3-0.913,0.276-1.214,0.643-1.554c7.491-6.933,15.416-13.339,23.654-19.361C75.666,40.088,76.012,40.063,76.308,39.969z"/>
	<path fill-rule="evenodd" clip-rule="evenodd" fill="#616262" d="M121.316,49.851c2.027,0.051,3.87,1.161,5.934,1.04
		c0.26-0.015,0.656,0.136,0.777,0.338c0.265,0.44-0.15,0.701-0.462,0.906c-2.253,1.479-4.516,2.945-6.775,4.416
		C120.966,54.317,121.141,52.084,121.316,49.851z"/>
</g>
</svg>
