<?xml version="1.0" encoding="UTF-8" standalone="no"?>
<!-- Created with Inkscape (http://www.inkscape.org/) -->

<svg
   xmlns:dc="http://purl.org/dc/elements/1.1/"
   xmlns:cc="http://creativecommons.org/ns#"
   xmlns:rdf="http://www.w3.org/1999/02/22-rdf-syntax-ns#"
   xmlns:svg="http://www.w3.org/2000/svg"
   xmlns="http://www.w3.org/2000/svg"
   xmlns:sodipodi="http://sodipodi.sourceforge.net/DTD/sodipodi-0.dtd"
   xmlns:inkscape="http://www.inkscape.org/namespaces/inkscape"
   width="96.827644mm"
   height="22.577778mm"
   viewBox="0 0 343.09008 80"
   id="svg2"
   version="1.1"
   inkscape:version="0.91 r13725"
   sodipodi:docname="hackmd.svg">
  <defs
     id="defs4" />
  <sodipodi:namedview
     id="base"
     pagecolor="#ffffff"
     bordercolor="#666666"
     borderopacity="1.0"
     inkscape:pageopacity="0.0"
     inkscape:pageshadow="2"
     inkscape:zoom="0.98994949"
     inkscape:cx="189.27878"
     inkscape:cy="-51.135959"
     inkscape:document-units="px"
     inkscape:current-layer="layer1"
     showgrid="false"
     inkscape:window-width="1319"
     inkscape:window-height="744"
     inkscape:window-x="47"
     inkscape:window-y="24"
     inkscape:window-maximized="1"
     fit-margin-top="0"
     fit-margin-left="0"
     fit-margin-right="0"
     fit-margin-bottom="0" />
  <metadata
     id="metadata7">
    <rdf:RDF>
      <cc:Work
         rdf:about="">
        <dc:format>image/svg+xml</dc:format>
        <dc:type
           rdf:resource="http://purl.org/dc/dcmitype/StillImage" />
        <dc:title></dc:title>
      </cc:Work>
    </rdf:RDF>
  </metadata>
  <g
     inkscape:label="Capa 1"
     inkscape:groupmode="layer"
     id="layer1"
     transform="translate(-120,-98.07649)">
    <g
       style="font-style:normal;font-weight:normal;font-size:40px;line-height:125%;font-family:sans-serif;letter-spacing:0px;word-spacing:0px;fill:#000000;fill-opacity:1;stroke:none;stroke-width:1px;stroke-linecap:butt;stroke-linejoin:miter;stroke-opacity:1"
       id="text3336">
      <path
         d="M 185.53571,119.32649 167.32143,101.1122 c -0.44643,-0.44642 -0.98214,-0.84821 -1.60714,-1.249996 l 0,21.071426 21.07142,0 c -0.40178,-0.625 -0.80357,-1.16071 -1.25,-1.60714 z m -21.25,7.32143 c -2.36607,0 -4.28571,-1.91964 -4.28571,-4.28572 l 0,-24.28571 -35.71429,0 c -2.36607,0 -4.28571,1.919643 -4.28571,4.28571 l 0,71.42858 c 0,2.36607 1.91964,4.28571 4.28571,4.28571 l 60,0 c 2.36608,0 4.28572,-1.91964 4.28572,-4.28571 l 0,-47.14286 -24.28572,0 z m 7.14286,32.85714 c 0,0.80357 -0.625,1.42857 -1.42857,1.42857 l -31.42857,0 c -0.80357,0 -1.42857,-0.625 -1.42857,-1.42857 l 0,-2.85714 c 0,-0.80357 0.625,-1.42857 1.42857,-1.42857 l 31.42857,0 c 0.80357,0 1.42857,0.625 1.42857,1.42857 l 0,2.85714 z m 0,-11.42857 c 0,0.80357 -0.625,1.42857 -1.42857,1.42857 l -31.42857,0 c -0.80357,0 -1.42857,-0.625 -1.42857,-1.42857 l 0,-2.85714 c 0,-0.80357 0.625,-1.42857 1.42857,-1.42857 l 31.42857,0 c 0.80357,0 1.42857,0.625 1.42857,1.42857 l 0,2.85714 z m 0,-11.42857 c 0,0.80357 -0.625,1.42857 -1.42857,1.42857 l -31.42857,0 c -0.80357,0 -1.42857,-0.625 -1.42857,-1.42857 l 0,-2.85714 c 0,-0.80358 0.625,-1.42858 1.42857,-1.42858 l 31.42857,0 c 0.80357,0 1.42857,0.625 1.42857,1.42858 l 0,2.85714 z"
         style="font-style:normal;font-variant:normal;font-weight:normal;font-stretch:normal;font-size:80px;font-family:FontAwesome;-inkscape-font-specification:FontAwesome"
         id="path3414"
         inkscape:connector-curvature="0" />
    </g>
    <g
       style="font-style:normal;font-weight:normal;font-size:78.65187073px;line-height:125%;font-family:sans-serif;letter-spacing:0px;word-spacing:0px;fill:#000000;fill-opacity:1;stroke:none;stroke-width:1px;stroke-linecap:butt;stroke-linejoin:miter;stroke-opacity:1"
       id="text3392">
      <path
         d="m 203.06452,167.20952 6.52811,0 0,-24.30343 23.98882,0 0,24.30343 6.60676,0 0,-51.59563 -6.60676,0 0,21.62927 -23.98882,0 0,-21.62927 -6.52811,0 0,51.59563 z"
         style="font-style:normal;font-variant:normal;font-weight:normal;font-stretch:normal;font-family:'Source Sans Pro';-inkscape-font-specification:'Source Sans Pro'"
         id="path3401"
         inkscape:connector-curvature="0" />
      <path
         d="m 262.55237,168.15334 c 4.79777,0 9.04497,-2.51686 12.66296,-5.50563 l 0.23595,0 0.55056,4.56181 5.34833,0 0,-23.43826 c 0,-9.51688 -3.93259,-15.73037 -13.29217,-15.73037 -6.13484,0 -11.48317,2.67416 -15.0225,4.95506 l 2.51686,4.48316 c 2.98877,-2.04495 7.00001,-4.0899 11.40452,-4.0899 6.29215,0 7.86519,4.71912 7.86519,9.59553 -16.28094,1.809 -23.43826,5.97754 -23.43826,14.31464 0,6.84272 4.79776,10.85396 11.16856,10.85396 z m 1.88765,-5.19102 c -3.77529,0 -6.76406,-1.809 -6.76406,-6.13485 0,-4.87641 4.4045,-8.02249 17.14611,-9.59553 l 0,10.61801 c -3.69664,3.30337 -6.68541,5.11237 -10.38205,5.11237 z"
         style="font-style:normal;font-variant:normal;font-weight:normal;font-stretch:normal;font-family:'Source Sans Pro';-inkscape-font-specification:'Source Sans Pro'"
         id="path3403"
         inkscape:connector-curvature="0" />
      <path
         d="m 308.47769,168.15334 c 4.56181,0 8.88766,-1.80899 12.34834,-4.87642 l -2.83146,-4.32585 c -2.35956,2.1236 -5.42698,3.85394 -8.96632,3.85394 -7.00001,0 -11.79778,-5.89889 -11.79778,-14.62924 0,-8.80901 5.03372,-14.78656 11.95509,-14.78656 3.06742,0 5.42698,1.41574 7.62923,3.38203 l 3.30338,-4.2472 c -2.67417,-2.4382 -6.13485,-4.48315 -11.16857,-4.48315 -9.83148,0 -18.40454,7.31462 -18.40454,20.13488 0,12.66295 7.78654,19.97757 17.93263,19.97757 z"
         style="font-style:normal;font-variant:normal;font-weight:normal;font-stretch:normal;font-family:'Source Sans Pro';-inkscape-font-specification:'Source Sans Pro'"
         id="path3405"
         inkscape:connector-curvature="0" />
      <path
         d="m 329.16929,167.20952 6.3708,0 0,-10.06744 7.15732,-8.3371 11.16856,18.40454 7.07867,0 -14.55059,-22.8877 12.82025,-15.33711 -7.15732,0 -16.28094,20.13488 -0.23595,0 0,-37.9102 -6.3708,0 0,56.00013 z"
         style="font-style:normal;font-variant:normal;font-weight:normal;font-stretch:normal;font-family:'Source Sans Pro';-inkscape-font-specification:'Source Sans Pro'"
         id="path3407"
         inkscape:connector-curvature="0" />
      <path
         d="m 368.66358,167.20952 5.89889,0 0,-28.39333 c 0,-4.56181 -0.47191,-10.69665 -0.78651,-15.25846 l 0.3146,0 4.0899,11.71913 9.75283,26.74163 4.32585,0 9.75284,-26.74163 4.08989,-11.71913 0.31461,0 c -0.31461,4.56181 -0.86517,10.69665 -0.86517,15.25846 l 0,28.39333 6.13485,0 0,-51.59563 -7.94384,0 -9.75283,27.52816 c -1.25843,3.53933 -2.28091,7.23597 -3.53934,10.7753 l -0.31461,0 c -1.25843,-3.53933 -2.4382,-7.23597 -3.69663,-10.7753 l -9.91014,-27.52816 -7.86519,0 0,51.59563 z"
         style="font-style:normal;font-variant:normal;font-weight:normal;font-stretch:normal;font-family:'Source Sans Pro';-inkscape-font-specification:'Source Sans Pro'"
         id="path3409"
         inkscape:connector-curvature="0" />
      <path
         d="m 425.80909,167.20952 13.21352,0 c 15.57307,0 24.06747,-9.59553 24.06747,-26.03377 0,-16.35959 -8.4944,-25.56186 -24.38208,-25.56186 l -12.89891,0 0,51.59563 z m 6.52811,-5.34833 0,-40.89897 5.89889,0 c 12.03373,0 18.08993,7.23597 18.08993,20.21353 0,13.05621 -6.0562,20.68544 -18.08993,20.68544 l -5.89889,0 z"
         style="font-style:normal;font-variant:normal;font-weight:normal;font-stretch:normal;font-family:'Source Sans Pro';-inkscape-font-specification:'Source Sans Pro'"
         id="path3411"
         inkscape:connector-curvature="0" />
    </g>
  </g>
</svg>
